<?xml version="1.0" encoding="UTF-8" standalone="no"?>
<!--Created with Inkscape (http://www.inkscape.org/)-->
<svg xmlns="http://www.w3.org/2000/svg" xmlns:svg="http://www.w3.org/2000/svg" xmlns:dc="http://purl.org/dc/elements/1.1/" xmlns:cc="http://creativecommons.org/ns#" xmlns:rdf="http://www.w3.org/1999/02/22-rdf-syntax-ns#" width="415.98" height="394.4" viewBox="0 0 88.05 83.48">
  <metadata id="metadata12">
    <rdf:RDF>
      <cc:Work rdf:about="">
        <dc:format>image/svg+xml</dc:format>
        <dc:type rdf:resource="http://purl.org/dc/dcmitype/StillImage" />
        <dc:title>SocialCoding logo design - Inkscape</dc:title>
        <dc:creator rdf:href="https://codeberg.org/circlebuilder">Arnold Schrijver</dc:creator>
      </cc:Work>
      <cc:License rdf:about="http://creativecommons.org/licenses/by-sa/4.0/">
        <cc:permits rdf:resource="http://creativecommons.org/ns#Reproduction" />
        <cc:permits rdf:resource="http://creativecommons.org/ns#Distribution" />
        <cc:requires rdf:resource="http://creativecommons.org/ns#Attribution" />
        <cc:prohibits rdf:resource="http://creativecommons.org/ns#DerivativeWorks" />
      </cc:License>
    </rdf:RDF>
  </metadata>
  <path fill="none" d="M-34.94 50.66H95.5v35.86H-34.94z"/>
  <g stroke-width=".26" letter-spacing="0" word-spacing="0">
    <g aria-label="SocialCoding" font-family="Roboto Condensed" font-size="16.93" font-weight="700" style="line-height:125%">
      <path fill="#470063" d="M51.56 54.13q0-.32-.06-.56-.06-.25-.25-.47-.18-.22-.52-.43-.34-.2-.91-.43-.68-.26-1.3-.6-.61-.32-1.09-.77-.46-.45-.74-1.04-.27-.6-.27-1.38 0-.75.28-1.37.28-.63.78-1.07.52-.44 1.21-.68.7-.25 1.55-.25.87 0 1.56.28.7.28 1.2.77.49.5.75 1.18.27.68.27 1.5h-2.43q0-.39-.08-.7-.07-.32-.25-.55-.16-.23-.43-.35-.26-.13-.63-.13-.35 0-.6.1-.26.11-.42.3-.17.18-.25.44-.08.26-.08.55 0 .3.12.53.14.24.37.45.24.2.57.39.34.18.74.35.84.3 1.47.68.63.37 1.05.84.42.48.63 1.07.2.59.2 1.33 0 .8-.26 1.42-.25.62-.74 1.05-.48.42-1.17.65-.68.22-1.54.22-.78 0-1.53-.23-.75-.24-1.33-.73-.59-.48-.95-1.23-.36-.74-.36-1.77h2.44q0 .55.1.93.11.38.33.62.22.23.54.34.33.1.76.1.34 0 .58-.1.25-.11.4-.28.16-.19.22-.43.07-.25.07-.54ZM55.25 52.52q0-1.05.25-1.86.26-.8.73-1.36.47-.55 1.13-.83.67-.3 1.5-.3.84 0 1.5.3.68.28 1.15.83.47.55.72 1.36.26.81.26 1.86v.6q0 1.05-.26 1.86-.24.8-.71 1.36-.48.55-1.15.83-.67.28-1.5.28t-1.5-.28q-.67-.28-1.14-.83-.47-.56-.73-1.36-.25-.81-.25-1.87Zm2.35.6q0 1.24.34 1.82.33.57.94.57.63 0 .96-.57.32-.58.32-1.83v-.59q0-1.22-.34-1.8-.34-.6-.96-.6-.6 0-.93.6-.33.58-.33 1.8ZM67.19 55.51q.49 0 .75-.3.27-.3.28-1.02h2.2q0 .76-.26 1.37-.24.6-.67 1.02-.43.43-1 .65-.58.22-1.25.22-.9 0-1.57-.29t-1.12-.83q-.44-.56-.66-1.36-.22-.8-.22-1.82v-.65q0-1.03.22-1.83t.66-1.36q.44-.56 1.1-.84.68-.3 1.57-.3.72 0 1.3.24.6.22 1.02.67.42.44.64 1.09.23.65.24 1.51h-2.2q0-.75-.25-1.16-.24-.4-.8-.4-.38 0-.61.16-.22.15-.35.46-.11.3-.16.74-.03.44-.03 1.02v.65q0 .58.03 1.03.04.44.15.73.13.3.36.45.23.15.63.15ZM74.22 57.29h-2.35v-8.95h2.35Zm-2.46-11.26q0-.28.1-.5.08-.23.25-.4.16-.16.4-.25.23-.1.52-.1.3 0 .52.1.24.09.4.25.17.17.27.4.09.22.09.5 0 .27-.1.5-.09.22-.25.4-.17.16-.4.25-.24.1-.53.1-.29 0-.53-.1-.23-.09-.4-.25-.16-.18-.25-.4-.09-.23-.09-.5ZM80.28 57.29q-.07-.14-.12-.32l-.08-.38q-.27.37-.69.61-.41.25-1.02.25-.54 0-1.02-.19-.47-.19-.83-.53-.34-.35-.55-.84-.2-.5-.2-1.1 0-.69.22-1.23.22-.56.66-.94.44-.38 1.1-.6.67-.2 1.58-.2h.63v-.72q0-.6-.2-.85-.21-.25-.6-.25-.46 0-.68.28-.2.26-.2.75h-2.34q0-.59.22-1.1.23-.52.66-.91.43-.39 1.03-.61.6-.23 1.37-.23.67 0 1.23.17.56.16.98.53.4.35.64.92.23.55.23 1.34v3.96q0 .4.02.7.02.3.06.54l.1.44q.07.2.15.37v.14Zm-1.38-1.67q.38 0 .66-.16.27-.16.4-.37v-1.86h-.55q-.33 0-.57.1-.24.11-.4.3-.16.2-.25.45-.07.26-.07.55 0 .48.2.74.2.25.58.25ZM86.45 57.29H84.1v-12.7h2.35Z" style="-inkscape-font-specification:'Roboto Condensed, Bold';font-variant-ligatures:normal;font-variant-caps:normal;font-variant-numeric:normal;font-feature-settings:normal;text-align:start" transform="translate(-46.12 14.42)"/>
      <path fill="#b30089" d="M96.54 53.28q-.1 2.06-1.16 3.11-1.06 1.06-3 1.06-1 0-1.8-.33-.78-.33-1.32-.98-.53-.65-.82-1.61-.28-.97-.28-2.23v-2.05q0-1.26.29-2.22.3-.97.85-1.62.55-.66 1.34-.99.78-.34 1.77-.34 1.96 0 2.98 1.1 1.03 1.1 1.17 3.16h-2.44q-.02-.64-.12-1.07-.09-.44-.29-.7-.2-.25-.52-.36-.31-.1-.78-.1-.5 0-.84.16-.34.16-.55.53-.22.37-.33.97-.1.6-.1 1.46v2.07q0 .85.09 1.44.08.6.29.98.2.37.54.54.34.18.86.18.45 0 .76-.1.33-.1.53-.33.2-.24.32-.67.1-.42.13-1.06ZM97.65 52.52q0-1.05.25-1.86.26-.8.73-1.36.47-.55 1.13-.83.67-.3 1.5-.3.84 0 1.5.3.68.28 1.15.83.47.55.72 1.36.26.81.26 1.86v.6q0 1.05-.26 1.86-.24.8-.71 1.36-.48.55-1.15.83-.67.28-1.5.28t-1.5-.28q-.67-.28-1.14-.83-.47-.56-.73-1.36-.25-.81-.25-1.87Zm2.35.6q0 1.24.33 1.82.34.57.95.57.63 0 .96-.57.32-.58.32-1.83v-.59q0-1.22-.34-1.8-.34-.6-.96-.6-.6 0-.93.6-.33.58-.33 1.8ZM106.04 52.54q0-2.2.74-3.28.75-1.08 2.17-1.08.55 0 .97.24.43.23.75.65v-4.48h2.36v12.7h-2.13l-.1-.91q-.34.5-.8.8-.46.27-1.06.27-1.42 0-2.16-1.1-.74-1.1-.74-3.22Zm2.35.59q0 .62.06 1.07.05.44.2.74.14.29.37.43.24.13.6.13.37 0 .63-.16.25-.17.42-.46V50.8q-.17-.32-.43-.5-.26-.16-.61-.16t-.59.14q-.23.14-.38.43t-.21.75q-.06.45-.06 1.08ZM117.21 57.29h-2.35v-8.95h2.35Zm-2.46-11.26q0-.28.1-.5.09-.23.25-.4.17-.16.4-.25.24-.1.53-.1.29 0 .52.1.24.09.4.25.17.17.26.4.1.22.1.5 0 .27-.1.5-.1.22-.26.4-.16.16-.4.25-.23.1-.52.1-.3 0-.53-.1-.23-.09-.4-.25-.16-.18-.25-.4-.1-.23-.1-.5ZM121.16 48.34l.07.89q.39-.52.9-.78.53-.27 1.17-.27.52 0 .96.18.44.17.76.58.31.4.48 1.05.18.66.18 1.6v5.7h-2.35v-5.7q0-.43-.07-.71-.06-.28-.2-.45-.12-.16-.31-.23-.19-.06-.45-.06-.33 0-.58.17-.24.17-.4.48v6.5h-2.36v-8.95ZM127.07 52.54q0-2.2.8-3.28.8-1.08 2.22-1.08.66 0 1.11.25.46.25.77.7l.09-.79h2.1v8.95q0 .92-.26 1.58-.27.67-.76 1.1-.48.43-1.17.63-.68.21-1.51.21-.32 0-.7-.07-.38-.06-.76-.2-.38-.12-.73-.32-.34-.19-.57-.45l.79-1.62q.16.16.37.3.22.15.46.25.25.1.52.17.26.06.5.06.36 0 .64-.08.28-.07.47-.26.19-.2.28-.5.1-.32.1-.8v-.71q-.32.42-.75.65-.43.22-1 .22-.7 0-1.27-.28-.55-.28-.94-.83-.38-.54-.59-1.34-.2-.81-.2-1.87Zm2.34.59q0 1.24.33 1.8.32.57 1.02.57.38 0 .64-.13.26-.14.43-.39v-4.27q-.17-.28-.44-.43-.26-.14-.61-.14-.7 0-1.03.57-.34.57-.34 1.83Z" style="-inkscape-font-specification:'Roboto Condensed, Bold';font-variant-ligatures:normal;font-variant-caps:normal;font-variant-numeric:normal;font-feature-settings:normal;text-align:start" transform="translate(-46.12 14.42)"/>
    </g>
    <g fill="#b30089" aria-label="Building Better Together" font-family="Rajdhani" font-size="8.82" font-weight="600" style="line-height:125%">
      <path d="M47.52 66.95h1.24q.66 0 .66-.63v-.55q0-.63-.7-.63h-1.2q-.1 0-.1.08v1.65q0 .08.1.08Zm0-2.52h1.15q.67 0 .67-.64v-.4q0-.64-.65-.64h-1.17q-.1 0-.1.08v1.51q0 .1.1.1Zm-.95 3.1v-5.37q0-.15.15-.15h2.1q.64 0 1 .36.37.35.37 1v.43q0 .76-.73.98.35.05.57.3.23.26.23.7v.56q0 .64-.36 1-.37.35-1.01.35h-2.17q-.15 0-.15-.15ZM53.02 67.69h-.4q-.63 0-.97-.36-.34-.36-.34-1.01v-2.98q0-.15.15-.15h.56q.15 0 .15.15v2.94q0 .66.63.66h.43q.72 0 .72-.75v-2.85q0-.15.15-.15h.56q.15 0 .15.15v4.2q0 .15-.15.15h-.56q-.15 0-.15-.15v-.32h-.04q-.2.47-.89.47ZM55.97 62.44v-.8q0-.15.14-.15h.57q.14 0 .14.15v.8q0 .15-.14.15h-.57q-.14 0-.14-.15Zm0 5.1v-4.2q0-.15.14-.15h.56q.15 0 .15.15v4.2q0 .08-.03.12-.03.03-.1.03h-.57q-.15 0-.15-.15ZM58.72 67.69h-.55q-.15 0-.15-.15v-5.9q0-.15.15-.15h.55q.15 0 .15.15v5.9q0 .15-.15.15ZM61.7 67.69h-.45q-.64 0-.98-.36-.34-.36-.34-1.01v-1.77q0-.66.34-1.01t.98-.35h.45q.68 0 .88.47h.03v-2.02q0-.15.15-.15h.57q.15 0 .15.15v5.9q0 .15-.15.15h-.57q-.15 0-.15-.15v-.32h-.03q-.2.47-.88.47Zm.91-1.5v-1.5q0-.75-.72-.75h-.47q-.63 0-.63.65v1.7q0 .65.63.65h.47q.72 0 .72-.75ZM64.63 62.44v-.8q0-.15.14-.15h.57q.15 0 .15.15v.8q0 .15-.15.15h-.57q-.14 0-.14-.15Zm0 5.1v-4.2q0-.15.14-.15h.57q.15 0 .15.15v4.2q0 .08-.04.12-.03.03-.1.03h-.57q-.15 0-.15-.15ZM67.34 67.69h-.55q-.15 0-.15-.15v-4.2q0-.15.15-.15h.55q.15 0 .15.15v.32h.04q.2-.47.89-.47h.39q.64 0 .98.35.35.35.35 1.01v2.99q0 .15-.16.15h-.56q-.15 0-.15-.15v-2.95q0-.65-.64-.65h-.42q-.72 0-.72.75v2.85q0 .15-.15.15ZM72.84 67.47h-.4q-.63 0-.97-.36-.34-.36-.34-1.01v-1.55q0-.65.36-1 .36-.36 1-.36h1.98q.16 0 .16.15v4.36q0 .65-.37 1-.36.36-1 .36H71.6q-.15 0-.15-.14v-.46q0-.15.15-.15h1.52q.65 0 .65-.65v-.67h-.04q-.22.48-.89.48Zm.93-1.5v-1.94q0-.1-.1-.1h-1.05q-.63 0-.63.66v1.46q0 .66.63.66h.42q.73 0 .73-.74ZM78.87 66.95h1.24q.66 0 .66-.63v-.55q0-.63-.7-.63h-1.2q-.1 0-.1.08v1.65q0 .08.1.08Zm0-2.52h1.15q.67 0 .67-.64v-.4q0-.64-.65-.64h-1.17q-.1 0-.1.08v1.51q0 .1.1.1Zm-.95 3.1v-5.37q0-.15.15-.15h2.1q.64 0 1 .36.37.35.37 1v.43q0 .76-.73.98.35.05.57.3.23.26.23.7v.56q0 .64-.36 1-.37.35-1 .35h-2.18q-.15 0-.15-.15ZM85.9 67.69h-1.91q-.66 0-1.02-.37-.35-.36-.35-1v-1.77q0-.65.35-1 .36-.36 1.02-.36h.72q.65 0 1.01.36.37.35.37 1v1.12q0 .16-.16.16h-2.37q-.1 0-.1.1v.37q0 .64.65.64h1.78q.16 0 .16.16v.44q0 .15-.16.15Zm-2.34-2.46h1.58q.09 0 .09-.08v-.57q0-.33-.15-.48-.15-.16-.48-.16h-.49q-.34 0-.49.16-.15.15-.15.48v.57q0 .08.1.08ZM87.18 63.94h-.42q-.1 0-.13-.03-.02-.03-.02-.11v-.46q0-.15.15-.15h.42q.09 0 .09-.09v-.8q0-.14.16-.14h.55q.15 0 .15.15v.79q0 .09.1.09h.82q.16 0 .16.15v.46q0 .14-.16.14h-.82q-.1 0-.1.09v2.26q0 .65.66.65h.35q.16 0 .16.15v.45q0 .15-.16.15h-.48q-.65 0-1.02-.36-.37-.35-.37-1v-2.3q0-.1-.09-.1ZM90.28 63.94h-.42q-.09 0-.13-.03-.02-.03-.02-.11v-.46q0-.15.15-.15h.42q.09 0 .09-.09v-.8q0-.14.16-.14h.55q.15 0 .15.15v.79q0 .09.1.09h.82q.16 0 .16.15v.46q0 .14-.16.14h-.82q-.1 0-.1.09v2.26q0 .65.67.65h.34q.16 0 .16.15v.45q0 .15-.16.15h-.48q-.65 0-1.02-.36-.37-.35-.37-1v-2.3q0-.1-.09-.1ZM96.43 67.69h-1.9q-.65 0-1.02-.37-.35-.36-.35-1v-1.77q0-.65.35-1 .37-.36 1.02-.36h.72q.65 0 1.02.36.36.35.36 1v1.12q0 .16-.16.16H94.1q-.1 0-.1.1v.37q0 .64.64.64h1.78q.16 0 .16.16v.44q0 .15-.16.15Zm-2.32-2.46h1.57q.1 0 .1-.08v-.57q0-.33-.16-.48-.15-.16-.48-.16h-.49q-.33 0-.48.16-.15.15-.15.48v.57q0 .08.09.08ZM98.3 67.69h-.56q-.15 0-.15-.15v-4.2q0-.15.15-.15h.56q.15 0 .15.15v.33h.03q.09-.22.34-.35.25-.13.56-.13h.33q.15 0 .15.15v.46q0 .16-.15.14h-.53q-.73 0-.73.8v2.8q0 .15-.15.15ZM104.3 67.69h-.56q-.16 0-.16-.15v-4.69q0-.09-.09-.09h-1.1q-.17 0-.17-.15v-.45q0-.15.16-.15h3.27q.16 0 .16.15v.45q0 .15-.16.15h-1.1q-.1 0-.1.1v4.68q0 .15-.15.15ZM108.53 67.69h-.77q-.65 0-1.02-.37-.35-.36-.35-1v-1.77q0-.65.35-1 .37-.36 1.02-.36h.77q.65 0 1 .36.38.35.38 1v1.77q0 .64-.37 1-.36.37-1 .37Zm-.65-.75h.54q.63 0 .63-.65v-1.7q0-.65-.63-.65h-.54q-.33 0-.48.16-.15.15-.15.48v1.71q0 .34.15.5.15.15.48.15ZM112.56 67.47h-.4q-.63 0-.97-.36-.34-.36-.34-1.01v-1.55q0-.65.36-1 .37-.36 1-.36h1.99q.15 0 .15.15v4.36q0 .65-.37 1-.36.36-1 .36h-1.66q-.15 0-.15-.14v-.46q0-.15.15-.15h1.53q.64 0 .64-.65v-.67h-.04q-.22.48-.89.48Zm.93-1.5v-1.94q0-.1-.1-.1h-1.05q-.62 0-.62.66v1.46q0 .66.62.66h.43q.72 0 .72-.74ZM118.64 67.69h-1.9q-.66 0-1.02-.37-.35-.36-.35-1v-1.77q0-.65.35-1 .36-.36 1.01-.36h.73q.65 0 1.01.36.36.35.36 1v1.12q0 .16-.16.16h-2.36q-.1 0-.1.1v.37q0 .64.65.64h1.78q.16 0 .16.16v.44q0 .15-.16.15Zm-2.33-2.46h1.58q.09 0 .09-.08v-.57q0-.33-.15-.48-.15-.16-.49-.16h-.48q-.34 0-.49.16-.15.15-.15.48v.57q0 .08.09.08ZM119.93 63.94h-.43q-.09 0-.12-.03t-.03-.11v-.46q0-.15.15-.15h.43q.08 0 .08-.09v-.8q0-.14.16-.14h.56q.15 0 .15.15v.79q0 .09.1.09h.82q.15 0 .15.15v.46q0 .14-.15.14h-.82q-.1 0-.1.09v2.26q0 .65.66.65h.34q.16 0 .16.15v.45q0 .15-.16.15h-.47q-.65 0-1.02-.36-.38-.35-.38-1v-2.3q0-.1-.08-.1ZM123.6 67.69h-.56q-.15 0-.15-.15v-5.9q0-.15.15-.15h.56q.15 0 .15.15v2.02h.04q.2-.47.89-.47h.38q.65 0 1 .35.34.35.34 1.01v2.99q0 .15-.16.15h-.56q-.15 0-.15-.15v-2.95q0-.65-.64-.65h-.42q-.72 0-.72.75v2.85q0 .15-.15.15ZM130.64 67.69h-1.9q-.65 0-1.02-.37-.35-.36-.35-1v-1.77q0-.65.35-1 .37-.36 1.02-.36h.72q.65 0 1.02.36.36.35.36 1v1.12q0 .16-.16.16h-2.37q-.1 0-.1.1v.37q0 .64.65.64h1.78q.16 0 .16.16v.44q0 .15-.16.15Zm-2.33-2.46h1.58q.1 0 .1-.08v-.57q0-.33-.16-.48-.15-.16-.48-.16h-.49q-.33 0-.48.16-.15.15-.15.48v.57q0 .08.08.08ZM132.5 67.69h-.55q-.15 0-.15-.15v-4.2q0-.15.15-.15h.56q.15 0 .15.15v.33h.03q.09-.22.34-.35.25-.13.56-.13h.33q.15 0 .15.15v.46q0 .16-.15.14h-.53q-.73 0-.73.8v2.8q0 .15-.15.15Z" style="-inkscape-font-specification:'Rajdhani, Semi-Bold';font-variant-ligatures:normal;font-variant-caps:normal;font-variant-numeric:normal;font-feature-settings:normal;text-align:start" transform="translate(-46.12 14.42)"/>
    </g>
  </g>
  <g transform="matrix(1.9374 0 0 1.9374 -29.14 -8.77)">
    <circle cx="37.77" cy="18.29" r="13.76" fill="#e7e5df"/>
    <g fill="#470063" stroke="#470063" stroke-width="4.76">
      <path stroke-width=".19682599999999997" d="M42 17.79a.48.48 0 0 0-.48.48 4.33 4.33 0 0 1-3.85 4.3v-1.42a.48.48 0 0 0-.48-.48 2.4 2.4 0 1 1 1.6-.61.48.48 0 0 0 .65.72 3.37 3.37 0 1 0-2.73.82v2.44a.48.48 0 1 0 .96 0v-.5a5.3 5.3 0 0 0 4.81-5.27.48.48 0 0 0-.48-.48Z"/>
      <path stroke-width=".19682599999999997" d="M35.81 19.04c.75.75 1.97.75 2.72 0a.48.48 0 1 0-.68-.68.96.96 0 0 1-1.36 0 .48.48 0 1 0-.68.68ZM44.89 9.13a2.4 2.4 0 0 0-2.4 2.4c0 .43.12.83.32 1.18l-1.97 1.72a5.3 5.3 0 0 0-7.4.1.48.48 0 1 0 .69.67 4.33 4.33 0 0 1 6.12 0l.22.23a.48.48 0 0 0 .66.03l2.3-2.02a2.4 2.4 0 1 0 1.45-4.31Zm0 3.84a1.45 1.45 0 1 1 0-2.89 1.45 1.45 0 0 1 0 2.9ZM37.19 25.48a2.4 2.4 0 1 0 0 4.82 2.4 2.4 0 0 0 0-4.82Zm0 3.85a1.45 1.45 0 1 1 0-2.89 1.45 1.45 0 0 1 0 2.9ZM32.38 17.79H29.9a1.92 1.92 0 1 0 0 .96h2.47a.48.48 0 1 0 0-.96Zm-4.33 1.44a.96.96 0 1 1 0-1.93.96.96 0 0 1 0 1.93Z"/>
    </g>
  </g>
</svg>
