<svg id="visual" viewBox="0 0 900 100" width="900" height="100" xmlns="http://www.w3.org/2000/svg" xmlns:xlink="http://www.w3.org/1999/xlink" version="1.1"><path d="M0 17L16.7 14.7C33.3 12.3 66.7 7.7 100 8.7C133.3 9.7 166.7 16.3 200 17.3C233.3 18.3 266.7 13.7 300 11.7C333.3 9.7 366.7 10.3 400 14.5C433.3 18.7 466.7 26.3 500 28.7C533.3 31 566.7 28 600 25.8C633.3 23.7 666.7 22.3 700 23.5C733.3 24.7 766.7 28.3 800 27.8C833.3 27.3 866.7 22.7 883.3 20.3L900 18L900 0L883.3 0C866.7 0 833.3 0 800 0C766.7 0 733.3 0 700 0C666.7 0 633.3 0 600 0C566.7 0 533.3 0 500 0C466.7 0 433.3 0 400 0C366.7 0 333.3 0 300 0C266.7 0 233.3 0 200 0C166.7 0 133.3 0 100 0C66.7 0 33.3 0 16.7 0L0 0Z" fill="#E0ECF1" stroke-linecap="round" stroke-linejoin="miter"></path></svg>