<svg id="visual" viewBox="0 0 900 300" width="900" height="300" xmlns="http://www.w3.org/2000/svg" xmlns:xlink="http://www.w3.org/1999/xlink" version="1.1"><path d="M0 37L21.5 42C43 47 86 57 128.8 67.5C171.7 78 214.3 89 257.2 90C300 91 343 82 385.8 73.2C428.7 64.3 471.3 55.7 514.2 51.7C557 47.7 600 48.3 642.8 52.3C685.7 56.3 728.3 63.7 771.2 62.7C814 61.7 857 52.3 878.5 47.7L900 43L900 0L878.5 0C857 0 814 0 771.2 0C728.3 0 685.7 0 642.8 0C600 0 557 0 514.2 0C471.3 0 428.7 0 385.8 0C343 0 300 0 257.2 0C214.3 0 171.7 0 128.8 0C86 0 43 0 21.5 0L0 0Z" fill="#E0ECF1" stroke-linecap="round" stroke-linejoin="miter"></path></svg>