<svg id="visual" viewBox="0 0 960 300" width="960" height="300" xmlns="http://www.w3.org/2000/svg" xmlns:xlink="http://www.w3.org/1999/xlink" version="1.1"><rect x="0" y="0" width="960" height="300" fill="#E0ECF1"></rect><path d="M0 192L26.7 186.2C53.3 180.3 106.7 168.7 160 169.7C213.3 170.7 266.7 184.3 320 195C373.3 205.7 426.7 213.3 480 208C533.3 202.7 586.7 184.3 640 180.5C693.3 176.7 746.7 187.3 800 184.2C853.3 181 906.7 164 933.3 155.5L960 147L960 301L933.3 301C906.7 301 853.3 301 800 301C746.7 301 693.3 301 640 301C586.7 301 533.3 301 480 301C426.7 301 373.3 301 320 301C266.7 301 213.3 301 160 301C106.7 301 53.3 301 26.7 301L0 301Z" fill="#FFFFFF" stroke-linecap="round" stroke-linejoin="miter"></path></svg>