<svg id="visual" viewBox="0 0 900 100" width="900" height="100" xmlns="http://www.w3.org/2000/svg" xmlns:xlink="http://www.w3.org/1999/xlink" version="1.1"><path d="M0 85L16.7 82.8C33.3 80.7 66.7 76.3 100 73C133.3 69.7 166.7 67.3 200 68.8C233.3 70.3 266.7 75.7 300 78.8C333.3 82 366.7 83 400 82.3C433.3 81.7 466.7 79.3 500 81C533.3 82.7 566.7 88.3 600 90C633.3 91.7 666.7 89.3 700 87.7C733.3 86 766.7 85 800 85.7C833.3 86.3 866.7 88.7 883.3 89.8L900 91L900 101L883.3 101C866.7 101 833.3 101 800 101C766.7 101 733.3 101 700 101C666.7 101 633.3 101 600 101C566.7 101 533.3 101 500 101C466.7 101 433.3 101 400 101C366.7 101 333.3 101 300 101C266.7 101 233.3 101 200 101C166.7 101 133.3 101 100 101C66.7 101 33.3 101 16.7 101L0 101Z" fill="#FFA89E" stroke-linecap="round" stroke-linejoin="miter"></path></svg>