<svg id="visual" viewBox="0 0 900 300" width="900" height="300" xmlns="http://www.w3.org/2000/svg" xmlns:xlink="http://www.w3.org/1999/xlink" version="1.1"><path d="M0 55L21.5 55.7C43 56.3 86 57.7 128.8 58.2C171.7 58.7 214.3 58.3 257.2 56C300 53.7 343 49.3 385.8 48.7C428.7 48 471.3 51 514.2 59.8C557 68.7 600 83.3 642.8 91.2C685.7 99 728.3 100 771.2 98.5C814 97 857 93 878.5 91L900 89L900 0L878.5 0C857 0 814 0 771.2 0C728.3 0 685.7 0 642.8 0C600 0 557 0 514.2 0C471.3 0 428.7 0 385.8 0C343 0 300 0 257.2 0C214.3 0 171.7 0 128.8 0C86 0 43 0 21.5 0L0 0Z" fill="#F8C6D8" stroke-linecap="round" stroke-linejoin="miter"></path></svg>