<svg id="visual" viewBox="0 0 900 300" width="900" height="300" xmlns="http://www.w3.org/2000/svg" xmlns:xlink="http://www.w3.org/1999/xlink" version="1.1"><path d="M0 238L21.5 237.8C43 237.7 86 237.3 128.8 230.7C171.7 224 214.3 211 257.2 212.5C300 214 343 230 385.8 236C428.7 242 471.3 238 514.2 234.5C557 231 600 228 642.8 226.8C685.7 225.7 728.3 226.3 771.2 230.7C814 235 857 243 878.5 247L900 251L900 301L878.5 301C857 301 814 301 771.2 301C728.3 301 685.7 301 642.8 301C600 301 557 301 514.2 301C471.3 301 428.7 301 385.8 301C343 301 300 301 257.2 301C214.3 301 171.7 301 128.8 301C86 301 43 301 21.5 301L0 301Z" fill="#FFA89E" stroke-linecap="round" stroke-linejoin="miter"></path></svg>