<svg id="visual" viewBox="0 0 900 100" width="900" height="100" xmlns="http://www.w3.org/2000/svg" xmlns:xlink="http://www.w3.org/1999/xlink" version="1.1"><path d="M0 8L16.7 11C33.3 14 66.7 20 100 23.2C133.3 26.3 166.7 26.7 200 27C233.3 27.3 266.7 27.7 300 24.3C333.3 21 366.7 14 400 9.5C433.3 5 466.7 3 500 7.3C533.3 11.7 566.7 22.3 600 23.7C633.3 25 666.7 17 700 17.2C733.3 17.3 766.7 25.7 800 25.2C833.3 24.7 866.7 15.3 883.3 10.7L900 6L900 0L883.3 0C866.7 0 833.3 0 800 0C766.7 0 733.3 0 700 0C666.7 0 633.3 0 600 0C566.7 0 533.3 0 500 0C466.7 0 433.3 0 400 0C366.7 0 333.3 0 300 0C266.7 0 233.3 0 200 0C166.7 0 133.3 0 100 0C66.7 0 33.3 0 16.7 0L0 0Z" fill="#DFD8F4" stroke-linecap="round" stroke-linejoin="miter"></path></svg>