<svg id="visual" viewBox="0 0 900 100" width="900" height="100" xmlns="http://www.w3.org/2000/svg" xmlns:xlink="http://www.w3.org/1999/xlink" version="1.1"><path d="M0 16L16.7 16.8C33.3 17.7 66.7 19.3 100 19.5C133.3 19.7 166.7 18.3 200 20.3C233.3 22.3 266.7 27.7 300 28.5C333.3 29.3 366.7 25.7 400 21.8C433.3 18 466.7 14 500 14.8C533.3 15.7 566.7 21.3 600 22.2C633.3 23 666.7 19 700 19.8C733.3 20.7 766.7 26.3 800 25.3C833.3 24.3 866.7 16.7 883.3 12.8L900 9L900 0L883.3 0C866.7 0 833.3 0 800 0C766.7 0 733.3 0 700 0C666.7 0 633.3 0 600 0C566.7 0 533.3 0 500 0C466.7 0 433.3 0 400 0C366.7 0 333.3 0 300 0C266.7 0 233.3 0 200 0C166.7 0 133.3 0 100 0C66.7 0 33.3 0 16.7 0L0 0Z" fill="#BAF2CD" stroke-linecap="round" stroke-linejoin="miter"></path></svg>