<svg id="visual" viewBox="0 0 900 100" width="900" height="100" xmlns="http://www.w3.org/2000/svg" xmlns:xlink="http://www.w3.org/1999/xlink" version="1.1"><path d="M0 13L16.7 15.2C33.3 17.3 66.7 21.7 100 25C133.3 28.3 166.7 30.7 200 29.2C233.3 27.7 266.7 22.3 300 19.2C333.3 16 366.7 15 400 15.7C433.3 16.3 466.7 18.7 500 17C533.3 15.3 566.7 9.7 600 8C633.3 6.3 666.7 8.7 700 10.3C733.3 12 766.7 13 800 12.3C833.3 11.7 866.7 9.3 883.3 8.2L900 7L900 0L883.3 0C866.7 0 833.3 0 800 0C766.7 0 733.3 0 700 0C666.7 0 633.3 0 600 0C566.7 0 533.3 0 500 0C466.7 0 433.3 0 400 0C366.7 0 333.3 0 300 0C266.7 0 233.3 0 200 0C166.7 0 133.3 0 100 0C66.7 0 33.3 0 16.7 0L0 0Z" fill="#F8C6D8" stroke-linecap="round" stroke-linejoin="miter"></path></svg>